<?xml version="1.0" standalone="no" ?>
<!DOCTYPE svg PUBLIC "-//W3C//DTD SVG 1.1//EN" "http://www.w3.org/Graphics/SVG/1.1/DTD/svg11.dtd">
<svg width="77px" height="60px" viewBox="0 0 77 60" style="background-color: #ffffff00" xmlns="http://www.w3.org/2000/svg" xmlns:xlink="http://www.w3.org/1999/xlink" version="1.1" >
<path stroke="transparent" fill="#000000" transform="matrix(0.0666667 0 0 0.0666667 -187.067 -299.467)" d="M 3263.11,5126.57 L 3261.5,5120.57 L 3271.89,5114.57 L 3538.11,5114.57 L 3548.5,5120.57 L 3546.89,5126.57 L 3263.11,5126.57 Z " />
<path stroke="transparent" fill="#000000" transform="matrix(0.0666667 0 0 0.0666667 -187.067 -299.467)" d="M 3350.98,5074.91 L 3350.98,5062.91 L 3459.02,5062.91 L 3459.02,5074.91 L 3350.98,5074.91 Z " />
<path stroke="transparent" fill="#000000" transform="matrix(0.0666667 0 0 0.0666667 -187.067 -299.467)" d="M 3405,4884.02 L 3405,4872.02 L 3411.93,4872.02 L 3552.89,5116.17 L 3548.5,5120.57 L 3538.11,5114.57 L 3405,4884.02 Z " />
<path stroke="transparent" fill="#000000" transform="matrix(0.0666667 0 0 0.0666667 -187.067 -299.467)" d="M 3271.89,5114.57 L 3261.5,5120.57 L 3257.11,5116.17 L 3398.07,4872.02 L 3405,4872.02 L 3405,4884.02 L 3271.89,5114.57 Z " />
<text x="0" y="0" stroke="transparent" fill="#000000" transform="matrix(0.0666667 0 0 0.0666667 2.67223 56.6711)" style="font:normal normal normal 200px 'Arial'" >
Cl</text>
<path stroke="transparent" fill="#000000" transform="matrix(0.0666667 0 0 0.0666667 -187.067 -299.467)" d="M 3069.44,5238.38 L 3063.44,5227.99 L 3257.11,5116.17 L 3261.5,5120.57 L 3263.11,5126.57 L 3069.44,5238.38 Z " />
<text x="0" y="0" stroke="transparent" fill="#000000" transform="matrix(0.0666667 0 0 0.0666667 19.2422 13.9646)" style="font:normal normal normal 200px 'Arial'" >
Cl</text>
<path stroke="transparent" fill="#000000" transform="matrix(0.0666667 0 0 0.0666667 -187.067 -299.467)" d="M 3308.66,4717.14 L 3319.05,4711.14 L 3405,4860.02 L 3405,4872.02 L 3398.07,4872.02 L 3308.66,4717.14 Z " />
<text x="0" y="0" stroke="transparent" fill="#000000" transform="matrix(0.0666667 0 0 0.0666667 61.27 56.6711)" style="font:normal normal normal 200px 'Arial'" >
Cl</text>
<path stroke="transparent" fill="#000000" transform="matrix(0.0666667 0 0 0.0666667 -187.067 -299.467)" d="M 3718.66,5211.88 L 3712.66,5222.27 L 3546.89,5126.57 L 3548.5,5120.57 L 3552.89,5116.17 L 3718.66,5211.88 Z " />
<text x="0" y="0" stroke="transparent" fill="#000000" transform="matrix(0.0666667 0 0 0.0666667 44.7 13.9646)" style="font:normal normal normal 200px 'Arial'" >
Cl</text>
<path stroke="transparent" fill="#000000" transform="matrix(0.0666667 0 0 0.0666667 -187.067 -299.467)" d="M 3487.65,4716.86 L 3498.04,4722.86 L 3411.93,4872.02 L 3405,4872.02 L 3405,4860.02 L 3487.65,4716.86 Z " />
</svg>
