<?xml version="1.0" standalone="no" ?>
<!DOCTYPE svg PUBLIC "-//W3C//DTD SVG 1.1//EN" "http://www.w3.org/Graphics/SVG/1.1/DTD/svg11.dtd">
<svg width="82px" height="70px" viewBox="0 0 82 70" style="background-color: #ffffff00" xmlns="http://www.w3.org/2000/svg" xmlns:xlink="http://www.w3.org/1999/xlink" version="1.1" >
<text x="0" y="0" stroke="transparent" fill="#000000" transform="matrix(0.0666667 0 0 0.0666667 57 66.8832)" style="font:normal normal normal 200px 'Arial'" >
Cl</text>
<text x="0" y="0" stroke="transparent" fill="#000000" transform="matrix(0.0666667 0 0 0.0666667 66.6 50.2556)" style="font:normal normal normal 200px 'Arial'" >
Cl</text>
<text x="0" y="0" stroke="transparent" fill="#000000" transform="matrix(0.0666667 0 0 0.0666667 2.67553 50.2556)" style="font:normal normal normal 200px 'Arial'" >
Cl</text>
<text x="0" y="0" stroke="transparent" fill="#000000" transform="matrix(0.0666667 0 0 0.0666667 12.2755 66.8832)" style="font:normal normal normal 200px 'Arial'" >
Cl</text>
<text x="0" y="0" stroke="transparent" fill="#000000" transform="matrix(0.0666667 0 0 0.0666667 37.8 14.4279)" style="font:normal normal normal 200px 'Arial'" >
Cl</text>
<path stroke="transparent" fill="#000000" transform="matrix(0.0666667 0 0 0.0666667 -189.067 -270)" d="M 3334.46,4731.83 L 3331,4725.83 L 3341.39,4719.83 L 3608.61,4719.83 L 3619,4725.83 L 3615.54,4731.83 L 3334.46,4731.83 Z " />
<path stroke="transparent" fill="#000000" transform="matrix(0.0666667 0 0 0.0666667 -189.067 -270)" d="M 3469,4474.81 L 3475,4476.42 L 3475,4488.42 L 3341.39,4719.83 L 3331,4725.83 L 3327.54,4719.83 L 3469,4474.81 Z " />
<path stroke="transparent" fill="#000000" transform="matrix(0.0666667 0 0 0.0666667 -189.067 -270)" d="M 3475,4488.42 L 3475,4476.42 L 3481,4474.81 L 3622.46,4719.83 L 3619,4725.83 L 3608.61,4719.83 L 3475,4488.42 Z " />
<path stroke="transparent" fill="#000000" transform="matrix(0.0666667 0 0 0.0666667 -189.067 -270)" d="M 3720.38,4889.42 L 3709.98,4895.42 L 3615.54,4731.83 L 3619,4725.83 L 3629.39,4731.83 L 3720.38,4889.42 Z " />
<path stroke="transparent" fill="#000000" transform="matrix(0.0666667 0 0 0.0666667 -189.067 -270)" d="M 3814,4719.83 L 3814,4731.83 L 3629.39,4731.83 L 3619,4725.83 L 3622.46,4719.83 L 3814,4719.83 Z " />
<path stroke="transparent" fill="#000000" transform="matrix(0.0666667 0 0 0.0666667 -189.067 -270)" d="M 3082.13,4731.83 L 3082.13,4719.83 L 3327.54,4719.83 L 3331,4725.83 L 3320.61,4731.83 L 3082.13,4731.83 Z " />
<path stroke="transparent" fill="#000000" transform="matrix(0.0666667 0 0 0.0666667 -189.067 -270)" d="M 3236.9,4900.82 L 3226.51,4894.82 L 3320.61,4731.83 L 3331,4725.83 L 3334.46,4731.83 L 3236.9,4900.82 Z " />
<path stroke="transparent" fill="#000000" transform="matrix(0.0666667 0 0 0.0666667 -189.067 -270)" d="M 3469,4300.25 L 3481,4300.25 L 3481,4474.81 L 3475,4476.42 L 3469,4474.81 L 3469,4300.25 Z " />
</svg>
