<?xml version="1.0" standalone="no" ?>
<!DOCTYPE svg PUBLIC "-//W3C//DTD SVG 1.1//EN" "http://www.w3.org/Graphics/SVG/1.1/DTD/svg11.dtd">
<svg width="40px" height="42px" viewBox="0 0 40 42" style="background-color: #ffffff00" xmlns="http://www.w3.org/2000/svg" xmlns:xlink="http://www.w3.org/1999/xlink" version="1.1" >
<path stroke="transparent" fill="#000000" transform="matrix(0.0666667 0 0 0.0666667 -178.067 -270.467)" d="M 2971.92,4476.57 L 2971.92,4490.43 L 2725.5,4632.7 L 2719.5,4622.3 L 2971.92,4476.57 Z " />
<path stroke="transparent" fill="#000000" transform="matrix(0.0666667 0 0 0.0666667 -178.067 -270.467)" d="M 3224.33,4622.3 L 3218.33,4632.7 L 2971.92,4490.43 L 2971.92,4476.57 L 3224.33,4622.3 Z " />
<text x="0" y="0" stroke="transparent" fill="#000000" transform="matrix(0.0666667 0 0 0.0666667 14.861 14.4333)" style="font:normal normal normal 200px 'Arial'" >
O</text>
<path stroke="transparent" fill="#000000" transform="matrix(0.0666667 0 0 0.0666667 -178.067 -270.467)" d="M 2940,4307.33 L 2952,4307.33 L 2952,4498.46 L 2940,4498.46 L 2940,4307.33 Z " />
<path stroke="transparent" fill="#000000" transform="matrix(0.0666667 0 0 0.0666667 -178.067 -270.467)" d="M 2991.84,4307.33 L 3003.84,4307.33 L 3003.84,4498.46 L 2991.84,4498.46 L 2991.84,4307.33 Z " />
</svg>
