<?xml version="1.0" standalone="no" ?>
<!DOCTYPE svg PUBLIC "-//W3C//DTD SVG 1.1//EN" "http://www.w3.org/Graphics/SVG/1.1/DTD/svg11.dtd">
<svg width="74px" height="46px" viewBox="0 0 74 46" style="background-color: #ffffff00" xmlns="http://www.w3.org/2000/svg" xmlns:xlink="http://www.w3.org/1999/xlink" version="1.1" >
<path stroke="transparent" fill="#000000" transform="matrix(0.0666667 0 0 0.0666667 -127.067 -280.467)" d="M 1969.08,4693.04 L 1957.08,4699.96 L 1957.08,4405.04 L 1969.08,4411.96 L 1969.08,4693.04 Z " />
<path stroke="transparent" fill="#000000" transform="matrix(0.0666667 0 0 0.0666667 -127.067 -280.467)" d="M 2020.92,4666.57 L 2008.92,4666.57 L 2008.92,4438.43 L 2020.92,4438.43 L 2020.92,4666.57 Z " />
<path stroke="transparent" fill="#000000" transform="matrix(0.0666667 0 0 0.0666667 -127.067 -280.467)" d="M 2212.5,4833.57 L 2212.5,4847.43 L 1957.08,4699.96 L 1969.08,4693.04 L 2212.5,4833.57 Z " />
<path stroke="transparent" fill="#000000" transform="matrix(0.0666667 0 0 0.0666667 -127.067 -280.467)" d="M 2455.92,4693.04 L 2461.92,4696.5 L 2461.92,4703.43 L 2212.5,4847.43 L 2212.5,4833.57 L 2455.92,4693.04 Z " />
<path stroke="transparent" fill="#000000" transform="matrix(0.0666667 0 0 0.0666667 -127.067 -280.467)" d="M 2407.08,4661.37 L 2413.08,4671.77 L 2215.5,4785.84 L 2209.5,4775.44 L 2407.08,4661.37 Z " />
<path stroke="transparent" fill="#000000" transform="matrix(0.0666667 0 0 0.0666667 -127.067 -280.467)" d="M 2455.92,4411.96 L 2461.92,4408.5 L 2467.92,4411.96 L 2467.92,4693.04 L 2461.92,4696.5 L 2455.92,4693.04 L 2455.92,4411.96 Z " />
<path stroke="transparent" fill="#000000" transform="matrix(0.0666667 0 0 0.0666667 -127.067 -280.467)" d="M 2212.5,4271.43 L 2212.5,4257.57 L 2461.92,4401.57 L 2461.92,4408.5 L 2455.92,4411.96 L 2212.5,4271.43 Z " />
<path stroke="transparent" fill="#000000" transform="matrix(0.0666667 0 0 0.0666667 -127.067 -280.467)" d="M 2209.5,4329.56 L 2215.5,4319.16 L 2413.08,4433.23 L 2407.08,4443.63 L 2209.5,4329.56 Z " />
<path stroke="transparent" fill="#000000" transform="matrix(0.0666667 0 0 0.0666667 -127.067 -280.467)" d="M 1969.08,4411.96 L 1957.08,4405.04 L 2212.5,4257.57 L 2212.5,4271.43 L 1969.08,4411.96 Z " />
<path stroke="transparent" fill="#000000" transform="matrix(0.0666667 0 0 0.0666667 -127.067 -280.467)" d="M 2711.33,4833.57 L 2711.33,4847.43 L 2461.92,4703.43 L 2461.92,4696.5 L 2467.92,4693.04 L 2711.33,4833.57 Z " />
<path stroke="transparent" fill="#000000" transform="matrix(0.0666667 0 0 0.0666667 -127.067 -280.467)" d="M 2954.75,4693.04 L 2966.75,4699.96 L 2711.33,4847.43 L 2711.33,4833.57 L 2954.75,4693.04 Z " />
<path stroke="transparent" fill="#000000" transform="matrix(0.0666667 0 0 0.0666667 -127.067 -280.467)" d="M 2905.91,4661.37 L 2911.91,4671.77 L 2714.33,4785.84 L 2708.33,4775.44 L 2905.91,4661.37 Z " />
<path stroke="transparent" fill="#000000" transform="matrix(0.0666667 0 0 0.0666667 -127.067 -280.467)" d="M 2954.75,4411.96 L 2966.75,4405.04 L 2966.75,4699.96 L 2954.75,4693.04 L 2954.75,4411.96 Z " />
<path stroke="transparent" fill="#000000" transform="matrix(0.0666667 0 0 0.0666667 -127.067 -280.467)" d="M 2711.33,4271.43 L 2711.33,4257.57 L 2966.75,4405.04 L 2954.75,4411.96 L 2711.33,4271.43 Z " />
<path stroke="transparent" fill="#000000" transform="matrix(0.0666667 0 0 0.0666667 -127.067 -280.467)" d="M 2708.33,4329.56 L 2714.33,4319.16 L 2911.91,4433.23 L 2905.91,4443.63 L 2708.33,4329.56 Z " />
<path stroke="transparent" fill="#000000" transform="matrix(0.0666667 0 0 0.0666667 -127.067 -280.467)" d="M 2467.92,4411.96 L 2461.92,4408.5 L 2461.92,4401.57 L 2711.33,4257.57 L 2711.33,4271.43 L 2467.92,4411.96 Z " />
</svg>
