<svg xmlns="http://www.w3.org/2000/svg" viewBox="0 0 161.74 163.92"><defs><style>.cls-1{fill:#ec8305;}.cls-2{fill:#fff;}</style></defs><title>prerobene logo test 2</title><g id="Layer_1" data-name="Layer 1"><circle class="cls-1" cx="58.77" cy="107.23" r="18.11"/><path d="M249.83,216.38A20.64,20.64,0,0,0,229.19,237a20.39,20.39,0,0,0,.74,5.39c.25,0,.5,0,.76,0a18.11,18.11,0,0,1,17.86,15.22c.42,0,.85.07,1.28.07a20.64,20.64,0,0,0,0-41.28Z" transform="translate(-170.67 -154.68)"/><path class="cls-1" d="M273.54,197a18.11,18.11,0,0,0-18.11,18.11v0a20.63,20.63,0,0,1,16.21,18c.63.06,1.26.1,1.9.1a18.12,18.12,0,0,0,0-36.23Z" transform="translate(-170.67 -154.68)"/><circle cx="43.38" cy="42.56" r="20.64"/><rect x="225.73" y="205.35" width="10.44" height="22.12" transform="translate(-256.04 72.02) rotate(-45)"/><rect x="195.56" y="175.22" width="10.44" height="22.12" transform="translate(-243.57 41.86) rotate(-45)"/><rect x="191.33" y="201.96" width="10.44" height="22.12" transform="translate(37.53 -231.27) rotate(45)"/><rect x="223.5" y="174.07" width="10.44" height="22.12" transform="translate(27.23 -262.18) rotate(45)"/><circle class="cls-2" cx="70.66" cy="15.61" r="15.05"/><path d="M241.37,155.09a15.13,15.13,0,0,0-12.79,7,15.14,15.14,0,0,1,22.12,20,15.14,15.14,0,0,0-9.33-27.07Z" transform="translate(-170.67 -154.68)"/><circle class="cls-2" cx="15.15" cy="70.88" r="15.05"/><path d="M185.79,240.7a15.08,15.08,0,0,0,12.76-7,15.1,15.1,0,0,1-22.07-20,15.11,15.11,0,0,0,9.31,27Z" transform="translate(-170.67 -154.68)"/><circle class="cls-2" cx="15.46" cy="15.2" r="15.05"/><path d="M170.94,169.86A15.14,15.14,0,0,0,178,182.68a15.17,15.17,0,0,1,20.07-22.16,15.18,15.18,0,0,0-27.14,9.34Z" transform="translate(-170.67 -154.68)"/><circle cx="118.36" cy="121.53" r="20.64"/><rect x="266.89" y="245.97" width="10.44" height="22.12" transform="translate(475.61 91.69) rotate(135)"/><rect x="297.06" y="276.1" width="10.44" height="22.12" transform="translate(548.42 121.79) rotate(135)"/><rect x="301.3" y="249.36" width="10.44" height="22.12" transform="translate(168.45 506.62) rotate(-135)"/><rect x="269.13" y="277.25" width="10.44" height="22.12" transform="translate(93.81 531.49) rotate(-135)"/><circle class="cls-2" cx="91.05" cy="148.51" r="15.05"/><path d="M261.69,318.36a15.14,15.14,0,0,0,12.8-7.06,15.15,15.15,0,0,1-22.13-20,15.15,15.15,0,0,0,9.33,27.09Z" transform="translate(-170.67 -154.68)"/><circle class="cls-2" cx="146.53" cy="93.26" r="15.05"/><path d="M317.26,232.74a15.11,15.11,0,0,0-12.79,7.06,15.13,15.13,0,0,1,22.11,20,15.14,15.14,0,0,0-9.32-27.07Z" transform="translate(-170.67 -154.68)"/><circle class="cls-2" cx="146.21" cy="148.82" r="15.05"/><path d="M332,303.5a15.07,15.07,0,0,0-7-12.75,15.08,15.08,0,0,1-19.95,22,15.09,15.09,0,0,0,27-9.29Z" transform="translate(-170.67 -154.68)"/></g></svg>