<svg xmlns="http://www.w3.org/2000/svg" viewBox="0 0 176.43 178.66"><defs><style>.cls-1,.cls-4{fill:#ec8305;}.cls-1,.cls-2,.cls-3{stroke:#024caa;stroke-miterlimit:10;stroke-width:15px;}.cls-3,.cls-5{fill:#fff;}</style></defs><title>prerobene logo test modry outline hruby</title><g id="Layer_4" data-name="Layer 4"><circle class="cls-1" cx="66.11" cy="114.52" r="18.11"/><path class="cls-2" d="M321.71,199.37A20.64,20.64,0,0,0,301.07,220a20.39,20.39,0,0,0,.74,5.39c.25,0,.5,0,.76,0a18.1,18.1,0,0,1,17.86,15.23c.43,0,.85.06,1.28.06a20.64,20.64,0,1,0,0-41.28Z" transform="translate(-235.21 -130.38)"/><path class="cls-1" d="M345.42,180a18.11,18.11,0,0,0-18.11,18.12v0a20.65,20.65,0,0,1,16.22,18c.62.06,1.25.1,1.89.1a18.12,18.12,0,0,0,0-36.23Z" transform="translate(-235.21 -130.38)"/><circle class="cls-2" cx="50.72" cy="49.85" r="20.64"/><rect class="cls-2" x="297.62" y="188.34" width="10.44" height="22.12" transform="translate(-287.5 142.16) rotate(-45)"/><rect class="cls-2" x="267.45" y="158.21" width="10.44" height="22.12" transform="translate(-275.03 112) rotate(-45)"/><rect class="cls-2" x="263.21" y="184.96" width="10.44" height="22.12" transform="translate(-17.98 -262.78) rotate(45)"/><rect class="cls-2" x="295.38" y="157.06" width="10.44" height="22.12" transform="translate(-28.28 -293.7) rotate(45)"/><circle class="cls-3" cx="78" cy="22.89" r="15.05"/><circle class="cls-3" cx="22.55" cy="78.11" r="15.05"/><circle class="cls-3" cx="22.87" cy="22.55" r="15.05"/><circle class="cls-2" cx="125.71" cy="128.81" r="20.64"/><rect class="cls-2" x="338.77" y="228.96" width="10.44" height="22.12" transform="translate(521.76 36.12) rotate(135)"/><rect class="cls-2" x="368.94" y="259.09" width="10.44" height="22.12" transform="translate(594.56 66.22) rotate(135)"/><rect class="cls-2" x="373.18" y="232.35" width="10.44" height="22.12" transform="translate(238.65 552.71) rotate(-135)"/><rect class="cls-2" x="341.01" y="260.24" width="10.44" height="22.12" transform="translate(164.01 577.58) rotate(-135)"/><circle class="cls-3" cx="98.43" cy="155.77" r="15.05"/><circle class="cls-3" cx="153.87" cy="100.55" r="15.05"/><circle class="cls-3" cx="153.55" cy="156.11" r="15.05"/></g><g id="Layer_1" data-name="Layer 1"><circle class="cls-4" cx="66.11" cy="114.6" r="18.11"/><path d="M321.71,199.45a20.56,20.56,0,0,0-19.9,26c.25,0,.5,0,.76,0a18.1,18.1,0,0,1,17.86,15.23c.43,0,.85.06,1.28.06a20.64,20.64,0,1,0,0-41.28Z" transform="translate(-235.21 -130.38)"/><path class="cls-4" d="M345.42,180.1a18.11,18.11,0,0,0-18.11,18.12v0a20.65,20.65,0,0,1,16.22,18c.62.06,1.25.1,1.89.1a18.12,18.12,0,0,0,0-36.23Z" transform="translate(-235.21 -130.38)"/><circle cx="50.72" cy="49.93" r="20.64"/><rect x="297.62" y="188.42" width="10.44" height="22.12" transform="translate(-287.56 142.19) rotate(-45)"/><rect x="267.45" y="158.29" width="10.44" height="22.12" transform="translate(-275.09 112.03) rotate(-45)"/><rect x="263.21" y="185.04" width="10.44" height="22.12" transform="translate(-17.92 -262.76) rotate(45)"/><rect x="295.38" y="157.14" width="10.44" height="22.12" transform="translate(-28.22 -293.68) rotate(45)"/><circle class="cls-5" cx="78" cy="22.97" r="15.05"/><path d="M313.26,138.16a15.14,15.14,0,0,0-12.8,7.06,15.13,15.13,0,0,1,22.12,20,15.14,15.14,0,0,0-9.32-27.08Z" transform="translate(-235.21 -130.38)"/><circle class="cls-5" cx="22.49" cy="78.24" r="15.05"/><path d="M257.67,223.77a15.09,15.09,0,0,0,12.77-7,15.11,15.11,0,0,1-22.08-20,15.11,15.11,0,0,0,9.31,27Z" transform="translate(-235.21 -130.38)"/><circle class="cls-5" cx="22.81" cy="22.56" r="15.05"/><path d="M242.82,152.93a15.18,15.18,0,0,0,7.08,12.83A15.17,15.17,0,0,1,270,143.59a15.18,15.18,0,0,0-27.14,9.34Z" transform="translate(-235.21 -130.38)"/><circle cx="125.71" cy="128.89" r="20.64"/><rect x="338.77" y="229.04" width="10.44" height="22.12" transform="translate(521.81 36.26) rotate(135)"/><rect x="368.94" y="259.17" width="10.44" height="22.12" transform="translate(594.62 66.36) rotate(135)"/><rect x="373.18" y="232.43" width="10.44" height="22.12" transform="translate(238.6 552.85) rotate(-135)"/><rect x="341.01" y="260.32" width="10.44" height="22.12" transform="translate(163.95 577.72) rotate(-135)"/><circle class="cls-5" cx="98.39" cy="155.88" r="15.05"/><path d="M333.58,301.43a15.11,15.11,0,0,0,12.79-7.06,15.14,15.14,0,0,1-22.12-20,15.15,15.15,0,0,0,9.33,27.09Z" transform="translate(-235.21 -130.38)"/><circle class="cls-5" cx="153.87" cy="100.63" r="15.05"/><path d="M389.14,215.81a15.11,15.11,0,0,0-12.79,7.06,15.13,15.13,0,0,1,22.11,20,15.13,15.13,0,0,0-9.32-27.07Z" transform="translate(-235.21 -130.38)"/><circle class="cls-5" cx="153.55" cy="156.19" r="15.05"/><path d="M403.86,286.57a15.08,15.08,0,0,0-7-12.75,15.09,15.09,0,0,1-19.95,22.05,15.09,15.09,0,0,0,27-9.3Z" transform="translate(-235.21 -130.38)"/></g></svg>