<svg id="Layer_1" class="opacity-20" data-name="Layer 1" xmlns="http://www.w3.org/2000/svg" xmlns:xlink="http://www.w3.org/1999/xlink" viewBox="0 0 1920 1080">
  <defs>
    <style>
        .cls-1 { fill: none; }
        .cls-2 {
            fill: #000000;
            opacity: 0.20;
            filter: url(#blurHexagons);
            }
        .cls-3 { fill: url(#New_Pattern); }
    </style>
    <filter id="blurHexagons" x="-20%" y="-20%" width="140%" height="140%">
        <feGaussianBlur in="SourceGraphic" stdDeviation="0.8" />
    </filter>
    <pattern id="New_Pattern" data-name="New Pattern" width="91.91" height="53.07" patternUnits="userSpaceOnUse" viewBox="0 0 91.92 53.07">
      <rect class="cls-1" width="91.91" height="53.07"/>
      <path class="cls-2" d="M104.64,31H79.19l-12.72,22,12.72,22h25.45l12.72-22L104.64,31m1.15-2,13.88,24-13.88,24H78l-13.88-24L78,29Z"/>
      <path class="cls-2" d="M12.72,31H-12.72l-12.72,22,12.72,22H12.72l12.72-22L12.72,31m1.16-2,13.87,24-13.87,24H-13.88l-13.87-24,13.87-24Z"/>
      <path class="cls-2" d="M104.64-22H79.19L66.47,0,79.19,22h25.45L117.36,0,104.64-22m1.15-2L119.67,0,105.79,24H78L64.16,0,78-24Z"/>
      <path class="cls-2" d="M58.68,4.5H33.24l-12.72,22,12.72,22H58.68l12.72-22L58.68,4.5m1.15-2,13.88,24-13.88,24H32.08l-13.87-24,13.87-24Z"/>
      <path class="cls-2" d="M12.72-22H-12.72L-25.44,0l12.72,22H12.72L25.44,0,12.72-22m1.16-2L27.75,0,13.88,24H-13.88L-27.75,0l13.87-24Z"/>
    </pattern>
  </defs>
  <title>honeycomb pattern</title>
  <rect class="cls-3" width="1920" height="1080"/>
</svg>
